<mxfile modified="2023-11-05T10:37:42.850Z" host="app.diagrams.net" agent="Mozilla/5.0 (iPad; CPU OS 17_0_3 like Mac OS X) AppleWebKit/605.1.15 (KHTML, like Gecko) Version/17.0.1 Mobile/15E148 Safari/604.1" etag="iAVmSbywdBhKhazuy2rz" version="22.0.8" type="github">
  <diagram id="ej8ITI8DgRlynaLAY_jn" name="Seite-1">
    <mxGraphModel dx="4180" dy="3133" grid="0" gridSize="10" guides="1" tooltips="1" connect="1" arrows="1" fold="1" page="1" pageScale="1" pageWidth="3300" pageHeight="2339" math="0" shadow="0">
      <root>
        <mxCell id="0" />
        <mxCell id="1" parent="0" />
        <mxCell id="7Kinel-RLKGkp3Gv7fs0-1" value="" style="group;strokeColor=none;strokeWidth=1;fontSize=12;" vertex="1" connectable="0" parent="1">
          <mxGeometry x="-730" y="-525" width="80" height="80" as="geometry" />
        </mxCell>
        <mxCell id="7Kinel-RLKGkp3Gv7fs0-2" value="" style="group;fillColor=none;strokeColor=none;fontSize=16;" vertex="1" connectable="0" parent="7Kinel-RLKGkp3Gv7fs0-1">
          <mxGeometry width="80" height="80" as="geometry" />
        </mxCell>
        <mxCell id="7Kinel-RLKGkp3Gv7fs0-3" value="" style="group;strokeColor=none;fontSize=16;" vertex="1" connectable="0" parent="7Kinel-RLKGkp3Gv7fs0-1">
          <mxGeometry width="80" height="80" as="geometry" />
        </mxCell>
        <mxCell id="7Kinel-RLKGkp3Gv7fs0-4" value="" style="whiteSpace=wrap;html=1;aspect=fixed;fillColor=none;strokeColor=none;fontSize=16;" vertex="1" parent="7Kinel-RLKGkp3Gv7fs0-1">
          <mxGeometry width="80" height="80" as="geometry" />
        </mxCell>
        <mxCell id="7Kinel-RLKGkp3Gv7fs0-5" value="" style="endArrow=none;html=1;exitX=0;exitY=0.5;exitDx=0;exitDy=0;entryX=1;entryY=0.5;entryDx=0;entryDy=0;strokeWidth=10;fillColor=#e3c800;strokeColor=#004C99;rounded=0;fontSize=12;startSize=8;endSize=8;curved=1;" edge="1" parent="7Kinel-RLKGkp3Gv7fs0-1" source="7Kinel-RLKGkp3Gv7fs0-4" target="7Kinel-RLKGkp3Gv7fs0-4">
          <mxGeometry width="50" height="50" relative="1" as="geometry">
            <mxPoint x="160" y="110" as="sourcePoint" />
            <mxPoint x="210" y="60" as="targetPoint" />
          </mxGeometry>
        </mxCell>
        <mxCell id="7Kinel-RLKGkp3Gv7fs0-6" value="&lt;h5 style=&quot;font-size: 12px;&quot;&gt;Stage&lt;/h5&gt;" style="ellipse;whiteSpace=wrap;html=1;aspect=fixed;strokeColor=#004C99;strokeWidth=10;fillColor=#ffffff;gradientColor=none;align=center;verticalAlign=top;fontSize=12;spacingTop=12;" vertex="1" parent="7Kinel-RLKGkp3Gv7fs0-1">
          <mxGeometry x="4" y="25" width="30" height="30" as="geometry" />
        </mxCell>
        <mxCell id="7Kinel-RLKGkp3Gv7fs0-7" value="" style="group;strokeColor=none;strokeWidth=1;fontSize=12;" vertex="1" connectable="0" parent="1">
          <mxGeometry x="-730" y="-688" width="80" height="80" as="geometry" />
        </mxCell>
        <mxCell id="7Kinel-RLKGkp3Gv7fs0-8" value="" style="group;fillColor=none;strokeColor=none;fontSize=16;" vertex="1" connectable="0" parent="7Kinel-RLKGkp3Gv7fs0-7">
          <mxGeometry width="80" height="80" as="geometry" />
        </mxCell>
        <mxCell id="7Kinel-RLKGkp3Gv7fs0-9" value="" style="group;strokeColor=none;fontSize=16;" vertex="1" connectable="0" parent="7Kinel-RLKGkp3Gv7fs0-7">
          <mxGeometry width="80" height="80" as="geometry" />
        </mxCell>
        <mxCell id="7Kinel-RLKGkp3Gv7fs0-10" value="" style="whiteSpace=wrap;html=1;aspect=fixed;fillColor=none;strokeColor=none;fontSize=16;" vertex="1" parent="7Kinel-RLKGkp3Gv7fs0-7">
          <mxGeometry width="80" height="80" as="geometry" />
        </mxCell>
        <mxCell id="7Kinel-RLKGkp3Gv7fs0-11" value="" style="endArrow=none;html=1;exitX=0;exitY=0.5;exitDx=0;exitDy=0;entryX=1;entryY=0.5;entryDx=0;entryDy=0;strokeWidth=10;fillColor=#e3c800;strokeColor=#4D9900;rounded=0;fontSize=12;startSize=8;endSize=8;curved=1;" edge="1" parent="7Kinel-RLKGkp3Gv7fs0-7" source="7Kinel-RLKGkp3Gv7fs0-10" target="7Kinel-RLKGkp3Gv7fs0-10">
          <mxGeometry width="50" height="50" relative="1" as="geometry">
            <mxPoint x="160" y="110" as="sourcePoint" />
            <mxPoint x="210" y="60" as="targetPoint" />
          </mxGeometry>
        </mxCell>
        <mxCell id="7Kinel-RLKGkp3Gv7fs0-12" value="&lt;h5 style=&quot;font-size: 12px;&quot;&gt;Stage&lt;/h5&gt;" style="ellipse;whiteSpace=wrap;html=1;aspect=fixed;strokeColor=#4D9900;strokeWidth=10;fillColor=#ffffff;gradientColor=none;align=center;verticalAlign=top;fontSize=12;spacingTop=12;" vertex="1" parent="7Kinel-RLKGkp3Gv7fs0-7">
          <mxGeometry x="4" y="25" width="30" height="30" as="geometry" />
        </mxCell>
        <mxCell id="7Kinel-RLKGkp3Gv7fs0-13" value="" style="group;strokeColor=none;strokeWidth=1;fontSize=12;" vertex="1" connectable="0" parent="1">
          <mxGeometry x="-730" y="-426" width="80" height="80" as="geometry" />
        </mxCell>
        <mxCell id="7Kinel-RLKGkp3Gv7fs0-14" value="" style="group;fillColor=none;strokeColor=none;fontSize=16;" vertex="1" connectable="0" parent="7Kinel-RLKGkp3Gv7fs0-13">
          <mxGeometry width="80" height="80" as="geometry" />
        </mxCell>
        <mxCell id="7Kinel-RLKGkp3Gv7fs0-15" value="" style="group;strokeColor=none;fontSize=16;" vertex="1" connectable="0" parent="7Kinel-RLKGkp3Gv7fs0-13">
          <mxGeometry width="80" height="80" as="geometry" />
        </mxCell>
        <mxCell id="7Kinel-RLKGkp3Gv7fs0-16" value="" style="whiteSpace=wrap;html=1;aspect=fixed;fillColor=none;strokeColor=none;fontSize=16;" vertex="1" parent="7Kinel-RLKGkp3Gv7fs0-13">
          <mxGeometry width="80" height="80" as="geometry" />
        </mxCell>
        <mxCell id="7Kinel-RLKGkp3Gv7fs0-17" value="" style="endArrow=none;html=1;exitX=0;exitY=0.5;exitDx=0;exitDy=0;entryX=1;entryY=0.5;entryDx=0;entryDy=0;strokeWidth=10;fillColor=#e3c800;strokeColor=#000000;rounded=0;fontSize=12;startSize=8;endSize=8;curved=1;" edge="1" parent="7Kinel-RLKGkp3Gv7fs0-13" source="7Kinel-RLKGkp3Gv7fs0-16" target="7Kinel-RLKGkp3Gv7fs0-16">
          <mxGeometry width="50" height="50" relative="1" as="geometry">
            <mxPoint x="160" y="110" as="sourcePoint" />
            <mxPoint x="210" y="60" as="targetPoint" />
          </mxGeometry>
        </mxCell>
        <mxCell id="7Kinel-RLKGkp3Gv7fs0-18" value="&lt;h5 style=&quot;font-size: 12px;&quot;&gt;Stage&lt;/h5&gt;" style="ellipse;whiteSpace=wrap;html=1;aspect=fixed;strokeColor=#000000;strokeWidth=10;fillColor=#ffffff;gradientColor=none;align=center;verticalAlign=top;fontSize=12;spacingTop=12;" vertex="1" parent="7Kinel-RLKGkp3Gv7fs0-13">
          <mxGeometry x="4" y="25" width="30" height="30" as="geometry" />
        </mxCell>
        <mxCell id="7Kinel-RLKGkp3Gv7fs0-19" value="" style="group;strokeColor=none;strokeWidth=1;fontSize=12;" vertex="1" connectable="0" parent="1">
          <mxGeometry x="-730" y="-309" width="80" height="80" as="geometry" />
        </mxCell>
        <mxCell id="7Kinel-RLKGkp3Gv7fs0-20" value="" style="group;fillColor=none;strokeColor=none;fontSize=16;" vertex="1" connectable="0" parent="7Kinel-RLKGkp3Gv7fs0-19">
          <mxGeometry width="80" height="80" as="geometry" />
        </mxCell>
        <mxCell id="7Kinel-RLKGkp3Gv7fs0-21" value="" style="group;strokeColor=none;fontSize=16;" vertex="1" connectable="0" parent="7Kinel-RLKGkp3Gv7fs0-19">
          <mxGeometry width="80" height="80" as="geometry" />
        </mxCell>
        <mxCell id="7Kinel-RLKGkp3Gv7fs0-22" value="" style="whiteSpace=wrap;html=1;aspect=fixed;fillColor=none;strokeColor=none;fontSize=16;" vertex="1" parent="7Kinel-RLKGkp3Gv7fs0-19">
          <mxGeometry width="80" height="80" as="geometry" />
        </mxCell>
        <mxCell id="7Kinel-RLKGkp3Gv7fs0-23" value="" style="endArrow=none;html=1;exitX=0;exitY=0.5;exitDx=0;exitDy=0;entryX=1;entryY=0.5;entryDx=0;entryDy=0;strokeWidth=10;fillColor=#e3c800;strokeColor=#CC0000;rounded=0;fontSize=12;startSize=8;endSize=8;curved=1;" edge="1" parent="7Kinel-RLKGkp3Gv7fs0-19" source="7Kinel-RLKGkp3Gv7fs0-22" target="7Kinel-RLKGkp3Gv7fs0-22">
          <mxGeometry width="50" height="50" relative="1" as="geometry">
            <mxPoint x="160" y="110" as="sourcePoint" />
            <mxPoint x="210" y="60" as="targetPoint" />
          </mxGeometry>
        </mxCell>
        <mxCell id="7Kinel-RLKGkp3Gv7fs0-24" value="&lt;h5 style=&quot;font-size: 12px;&quot;&gt;Stage&lt;/h5&gt;" style="ellipse;whiteSpace=wrap;html=1;aspect=fixed;strokeColor=#CC0000;strokeWidth=10;fillColor=#ffffff;gradientColor=none;align=center;verticalAlign=top;fontSize=12;spacingTop=12;" vertex="1" parent="7Kinel-RLKGkp3Gv7fs0-19">
          <mxGeometry x="4" y="25" width="30" height="30" as="geometry" />
        </mxCell>
        <mxCell id="7Kinel-RLKGkp3Gv7fs0-25" value="" style="group;strokeColor=none;strokeWidth=1;fontSize=12;" vertex="1" connectable="0" parent="1">
          <mxGeometry x="-470" y="-659" width="80" height="80" as="geometry" />
        </mxCell>
        <mxCell id="7Kinel-RLKGkp3Gv7fs0-26" value="" style="group;fillColor=none;strokeColor=none;fontSize=16;" vertex="1" connectable="0" parent="7Kinel-RLKGkp3Gv7fs0-25">
          <mxGeometry width="80" height="80" as="geometry" />
        </mxCell>
        <mxCell id="7Kinel-RLKGkp3Gv7fs0-27" value="" style="group;strokeColor=none;fontSize=16;" vertex="1" connectable="0" parent="7Kinel-RLKGkp3Gv7fs0-25">
          <mxGeometry width="80" height="80" as="geometry" />
        </mxCell>
        <mxCell id="7Kinel-RLKGkp3Gv7fs0-28" value="" style="whiteSpace=wrap;html=1;aspect=fixed;fillColor=none;strokeColor=none;fontSize=16;" vertex="1" parent="7Kinel-RLKGkp3Gv7fs0-25">
          <mxGeometry width="80" height="80" as="geometry" />
        </mxCell>
        <mxCell id="7Kinel-RLKGkp3Gv7fs0-29" value="" style="endArrow=none;html=1;exitX=0;exitY=0.5;exitDx=0;exitDy=0;entryX=1;entryY=0.5;entryDx=0;entryDy=0;strokeWidth=10;fillColor=#e3c800;strokeColor=#7F00FF;rounded=0;fontSize=12;startSize=8;endSize=8;curved=1;" edge="1" parent="7Kinel-RLKGkp3Gv7fs0-25" source="7Kinel-RLKGkp3Gv7fs0-28" target="7Kinel-RLKGkp3Gv7fs0-28">
          <mxGeometry width="50" height="50" relative="1" as="geometry">
            <mxPoint x="160" y="110" as="sourcePoint" />
            <mxPoint x="210" y="60" as="targetPoint" />
          </mxGeometry>
        </mxCell>
        <mxCell id="7Kinel-RLKGkp3Gv7fs0-30" value="&lt;h5 style=&quot;font-size: 12px;&quot;&gt;Stage&lt;/h5&gt;" style="ellipse;whiteSpace=wrap;html=1;aspect=fixed;strokeColor=#7F00FF;strokeWidth=10;fillColor=#ffffff;gradientColor=none;align=center;verticalAlign=top;fontSize=12;spacingTop=12;" vertex="1" parent="7Kinel-RLKGkp3Gv7fs0-25">
          <mxGeometry x="4" y="25" width="30" height="30" as="geometry" />
        </mxCell>
        <mxCell id="7Kinel-RLKGkp3Gv7fs0-31" value="" style="group;strokeColor=none;strokeWidth=1;fontSize=12;" vertex="1" connectable="0" parent="1">
          <mxGeometry x="-460" y="-502" width="80" height="80" as="geometry" />
        </mxCell>
        <mxCell id="7Kinel-RLKGkp3Gv7fs0-32" value="" style="group;fillColor=none;strokeColor=none;fontSize=16;" vertex="1" connectable="0" parent="7Kinel-RLKGkp3Gv7fs0-31">
          <mxGeometry width="80" height="80" as="geometry" />
        </mxCell>
        <mxCell id="7Kinel-RLKGkp3Gv7fs0-33" value="" style="group;strokeColor=none;fontSize=16;" vertex="1" connectable="0" parent="7Kinel-RLKGkp3Gv7fs0-31">
          <mxGeometry width="80" height="80" as="geometry" />
        </mxCell>
        <mxCell id="7Kinel-RLKGkp3Gv7fs0-34" value="" style="whiteSpace=wrap;html=1;aspect=fixed;fillColor=none;strokeColor=none;fontSize=16;" vertex="1" parent="7Kinel-RLKGkp3Gv7fs0-31">
          <mxGeometry width="80" height="80" as="geometry" />
        </mxCell>
        <mxCell id="7Kinel-RLKGkp3Gv7fs0-35" value="" style="endArrow=none;html=1;exitX=0;exitY=0.5;exitDx=0;exitDy=0;entryX=1;entryY=0.5;entryDx=0;entryDy=0;strokeWidth=10;fillColor=#e3c800;strokeColor=#CCCCCC;rounded=0;fontSize=12;startSize=8;endSize=8;curved=1;" edge="1" parent="7Kinel-RLKGkp3Gv7fs0-31" source="7Kinel-RLKGkp3Gv7fs0-34" target="7Kinel-RLKGkp3Gv7fs0-34">
          <mxGeometry width="50" height="50" relative="1" as="geometry">
            <mxPoint x="160" y="110" as="sourcePoint" />
            <mxPoint x="210" y="60" as="targetPoint" />
          </mxGeometry>
        </mxCell>
        <mxCell id="7Kinel-RLKGkp3Gv7fs0-36" value="&lt;h5 style=&quot;font-size: 12px;&quot;&gt;Stage&lt;/h5&gt;" style="ellipse;whiteSpace=wrap;html=1;aspect=fixed;strokeColor=#CCCCCC;strokeWidth=10;fillColor=#ffffff;gradientColor=none;align=center;verticalAlign=top;fontSize=12;spacingTop=12;" vertex="1" parent="7Kinel-RLKGkp3Gv7fs0-31">
          <mxGeometry x="4" y="25" width="30" height="30" as="geometry" />
        </mxCell>
        <mxCell id="7Kinel-RLKGkp3Gv7fs0-37" value="" style="group;strokeColor=none;strokeWidth=1;fontSize=12;" vertex="1" connectable="0" parent="1">
          <mxGeometry x="-472" y="-318" width="80" height="80" as="geometry" />
        </mxCell>
        <mxCell id="7Kinel-RLKGkp3Gv7fs0-38" value="" style="group;fillColor=none;strokeColor=none;fontSize=16;" vertex="1" connectable="0" parent="7Kinel-RLKGkp3Gv7fs0-37">
          <mxGeometry width="80" height="80" as="geometry" />
        </mxCell>
        <mxCell id="7Kinel-RLKGkp3Gv7fs0-39" value="" style="group;strokeColor=none;fontSize=16;" vertex="1" connectable="0" parent="7Kinel-RLKGkp3Gv7fs0-37">
          <mxGeometry width="80" height="80" as="geometry" />
        </mxCell>
        <mxCell id="7Kinel-RLKGkp3Gv7fs0-40" value="" style="whiteSpace=wrap;html=1;aspect=fixed;fillColor=none;strokeColor=none;fontSize=16;" vertex="1" parent="7Kinel-RLKGkp3Gv7fs0-37">
          <mxGeometry width="80" height="80" as="geometry" />
        </mxCell>
        <mxCell id="7Kinel-RLKGkp3Gv7fs0-41" value="" style="endArrow=none;html=1;exitX=0;exitY=0.5;exitDx=0;exitDy=0;entryX=1;entryY=0.5;entryDx=0;entryDy=0;strokeWidth=10;fillColor=#e3c800;strokeColor=#FF66FF;rounded=0;fontSize=12;startSize=8;endSize=8;curved=1;" edge="1" parent="7Kinel-RLKGkp3Gv7fs0-37" source="7Kinel-RLKGkp3Gv7fs0-40" target="7Kinel-RLKGkp3Gv7fs0-40">
          <mxGeometry width="50" height="50" relative="1" as="geometry">
            <mxPoint x="160" y="110" as="sourcePoint" />
            <mxPoint x="210" y="60" as="targetPoint" />
          </mxGeometry>
        </mxCell>
        <mxCell id="7Kinel-RLKGkp3Gv7fs0-42" value="&lt;h5 style=&quot;font-size: 12px;&quot;&gt;Stage&lt;/h5&gt;" style="ellipse;whiteSpace=wrap;html=1;aspect=fixed;strokeColor=#FF66FF;strokeWidth=10;fillColor=#ffffff;gradientColor=none;align=center;verticalAlign=top;fontSize=12;spacingTop=12;" vertex="1" parent="7Kinel-RLKGkp3Gv7fs0-37">
          <mxGeometry x="4" y="25" width="30" height="30" as="geometry" />
        </mxCell>
        <mxCell id="7Kinel-RLKGkp3Gv7fs0-43" value="" style="group;strokeColor=none;strokeWidth=1;fontSize=12;" vertex="1" connectable="0" parent="1">
          <mxGeometry x="-728" y="-599" width="80" height="80" as="geometry" />
        </mxCell>
        <mxCell id="7Kinel-RLKGkp3Gv7fs0-44" value="" style="group;fillColor=none;strokeColor=none;fontSize=16;" vertex="1" connectable="0" parent="7Kinel-RLKGkp3Gv7fs0-43">
          <mxGeometry width="80" height="80" as="geometry" />
        </mxCell>
        <mxCell id="7Kinel-RLKGkp3Gv7fs0-45" value="" style="group;strokeColor=none;fontSize=16;" vertex="1" connectable="0" parent="7Kinel-RLKGkp3Gv7fs0-43">
          <mxGeometry width="80" height="80" as="geometry" />
        </mxCell>
        <mxCell id="7Kinel-RLKGkp3Gv7fs0-46" value="" style="whiteSpace=wrap;html=1;aspect=fixed;fillColor=none;strokeColor=none;fontSize=16;" vertex="1" parent="7Kinel-RLKGkp3Gv7fs0-43">
          <mxGeometry width="80" height="80" as="geometry" />
        </mxCell>
        <mxCell id="7Kinel-RLKGkp3Gv7fs0-47" value="" style="endArrow=none;html=1;exitX=0;exitY=0.5;exitDx=0;exitDy=0;entryX=1;entryY=0.5;entryDx=0;entryDy=0;strokeWidth=10;fillColor=#e3c800;strokeColor=#CCCC00;rounded=0;fontSize=12;startSize=8;endSize=8;curved=1;" edge="1" parent="7Kinel-RLKGkp3Gv7fs0-43" source="7Kinel-RLKGkp3Gv7fs0-46" target="7Kinel-RLKGkp3Gv7fs0-46">
          <mxGeometry width="50" height="50" relative="1" as="geometry">
            <mxPoint x="160" y="110" as="sourcePoint" />
            <mxPoint x="210" y="60" as="targetPoint" />
          </mxGeometry>
        </mxCell>
        <mxCell id="7Kinel-RLKGkp3Gv7fs0-48" value="&lt;h5 style=&quot;font-size: 12px;&quot;&gt;Stage&lt;/h5&gt;" style="ellipse;whiteSpace=wrap;html=1;aspect=fixed;strokeColor=#CCCC00;strokeWidth=10;fillColor=#ffffff;gradientColor=none;align=center;verticalAlign=top;fontSize=12;spacingTop=12;" vertex="1" parent="7Kinel-RLKGkp3Gv7fs0-43">
          <mxGeometry x="4" y="25" width="30" height="30" as="geometry" />
        </mxCell>
        <mxCell id="7Kinel-RLKGkp3Gv7fs0-55" value="" style="group;strokeColor=none;strokeWidth=1;fontSize=12;" vertex="1" connectable="0" parent="1">
          <mxGeometry x="-466" y="-576" width="80" height="80" as="geometry" />
        </mxCell>
        <mxCell id="7Kinel-RLKGkp3Gv7fs0-56" value="" style="group;fillColor=none;strokeColor=none;fontSize=16;" vertex="1" connectable="0" parent="7Kinel-RLKGkp3Gv7fs0-55">
          <mxGeometry width="80" height="80" as="geometry" />
        </mxCell>
        <mxCell id="7Kinel-RLKGkp3Gv7fs0-57" value="" style="group;strokeColor=none;fontSize=16;" vertex="1" connectable="0" parent="7Kinel-RLKGkp3Gv7fs0-55">
          <mxGeometry width="80" height="80" as="geometry" />
        </mxCell>
        <mxCell id="7Kinel-RLKGkp3Gv7fs0-58" value="" style="whiteSpace=wrap;html=1;aspect=fixed;fillColor=none;strokeColor=none;fontSize=16;" vertex="1" parent="7Kinel-RLKGkp3Gv7fs0-55">
          <mxGeometry width="80" height="80" as="geometry" />
        </mxCell>
        <mxCell id="7Kinel-RLKGkp3Gv7fs0-59" value="" style="endArrow=none;html=1;exitX=0;exitY=0.5;exitDx=0;exitDy=0;entryX=1;entryY=0.5;entryDx=0;entryDy=0;strokeWidth=10;fillColor=#e3c800;strokeColor=#FF9933;rounded=0;fontSize=12;startSize=8;endSize=8;curved=1;" edge="1" parent="7Kinel-RLKGkp3Gv7fs0-55" source="7Kinel-RLKGkp3Gv7fs0-58" target="7Kinel-RLKGkp3Gv7fs0-58">
          <mxGeometry width="50" height="50" relative="1" as="geometry">
            <mxPoint x="160" y="110" as="sourcePoint" />
            <mxPoint x="210" y="60" as="targetPoint" />
          </mxGeometry>
        </mxCell>
        <mxCell id="7Kinel-RLKGkp3Gv7fs0-60" value="&lt;h5 style=&quot;font-size: 12px;&quot;&gt;Stage&lt;/h5&gt;" style="ellipse;whiteSpace=wrap;html=1;aspect=fixed;strokeColor=#FF9933;strokeWidth=10;fillColor=#ffffff;gradientColor=none;align=center;verticalAlign=top;fontSize=12;spacingTop=12;" vertex="1" parent="7Kinel-RLKGkp3Gv7fs0-55">
          <mxGeometry x="4" y="25" width="30" height="30" as="geometry" />
        </mxCell>
      </root>
    </mxGraphModel>
  </diagram>
</mxfile>
